<svg width="129" height="39" viewBox="0 0 129 39" fill="none" xmlns="http://www.w3.org/2000/svg">
<path fill-rule="evenodd" clip-rule="evenodd" d="M43.7923 21.0575C44.5995 19.8631 45.0031 18.4729 45.0031 16.8869C45.0031 14.7723 44.3208 13.059 42.9562 11.7472C41.6109 10.4157 39.8523 9.75 37.6805 9.75C35.5279 9.75 33.7693 10.4157 32.4048 11.7472C31.0594 13.0786 30.3867 14.7919 30.3867 16.8869C30.3867 18.9624 31.0402 20.6659 32.3471 21.9973C33.654 23.3092 35.3549 23.9847 37.4499 24.0238L35.3563 27.1612L37.5911 30.6361L43.8211 21.0575H43.7923ZM35.2877 19.3246C34.6534 18.7176 34.3363 17.9051 34.3363 16.8869C34.3363 15.8883 34.6534 15.0856 35.2877 14.4786C35.9411 13.8716 36.7387 13.5681 37.6805 13.5681C38.6607 13.5681 39.4679 13.8716 40.1021 14.4786C40.7364 15.066 41.0535 15.8688 41.0535 16.8869C41.0535 17.9051 40.7364 18.7176 40.1021 19.3246C39.4679 19.9316 38.6607 20.2351 37.6805 20.2351C36.7387 20.2351 35.9411 19.9316 35.2877 19.3246Z" fill="black"/>
<path d="M26.9172 9.47949V30.0471H23.1612L14.213 17.102H14.0624V30.0471H9.71387V9.47949H13.5301L22.408 22.4146H22.5887V9.47949H26.9172Z" fill="black"/>
<path d="M6.13613 9.47949V30.0471H1.7876V9.47949H6.13613Z" fill="black"/>
</svg>
